# xmcd CD database file
#
# Track frame offsets:
#	150
#	9323
#	18776
#	32118
#	48566
#	62787
#	77415
#	94122
#	114168
#	128335
#	145864
#	158305
#	174002
#	186352
#	197869
#
# Disc length: 2867 seconds
#
# Revision: 0
# Processed by: cddbd v1.5.1PL2 Copyright (c) Steve Scherf et al.
# Submitted via: CDex 1.51
#
DISCID=a90b310f
DTITLE=The Fence Sitters - More Blue Than Green
DYEAR=1998
DGENRE=Country
TTITLE0=After All
TTITLE1=Not This Time
TTITLE2=You Didn't Know
TTITLE3=Highway Signs
TTITLE4=Almost Grown
TTITLE5=Freight Train
TTITLE6=Bandera Waltz
TTITLE7=Old Man
TTITLE8=Devil Born Again
TTITLE9=At The Dance
TTITLE10=Blue Hawai'i World
TTITLE11=Fine Line
TTITLE12=Don't Leave Me Behind
TTITLE13=Blind Stretch of Highway
TTITLE14=Jesus, Walk Me to the Bar
EXTD=YEAR: 1998
EXTT0=
EXTT1=
EXTT2=
EXTT3=
EXTT4=
EXTT5=
EXTT6=
EXTT7=
EXTT8=
EXTT9=
EXTT10=
EXTT11=
EXTT12=
EXTT13=
EXTT14=
PLAYORDER=
